<svg width="760" height="520" viewBox="0 0 760 520" fill="none" xmlns="http://www.w3.org/2000/svg" role="img" aria-labelledby="title desc">
  <title id="title">Floatbase admin logo</title>
  <desc id="desc">A high-definition Floatbase houseboat mark with the Smart Management tagline.</desc>
  <defs>
    <linearGradient id="navyDepth" x1="155" y1="75" x2="533" y2="353" gradientUnits="userSpaceOnUse">
      <stop stop-color="#123E61"/>
      <stop offset="1" stop-color="#06223B"/>
    </linearGradient>
    <linearGradient id="tealFace" x1="272" y1="200" x2="489" y2="307" gradientUnits="userSpaceOnUse">
      <stop stop-color="#229A9D"/>
      <stop offset="1" stop-color="#0F6F78"/>
    </linearGradient>
    <linearGradient id="tealSail" x1="166" y1="92" x2="289" y2="206" gradientUnits="userSpaceOnUse">
      <stop stop-color="#24B4BA"/>
      <stop offset="1" stop-color="#0B6175"/>
    </linearGradient>
    <linearGradient id="goldSail" x1="528" y1="104" x2="401" y2="216" gradientUnits="userSpaceOnUse">
      <stop stop-color="#DEC06F"/>
      <stop offset="1" stop-color="#A98835"/>
    </linearGradient>
    <filter id="softShadow" x="74" y="34" width="612" height="355" filterUnits="userSpaceOnUse" color-interpolation-filters="sRGB">
      <feDropShadow dx="0" dy="13" stdDeviation="12" flood-color="#06223B" flood-opacity="0.18"/>
    </filter>
  </defs>

  <g filter="url(#softShadow)">
    <path d="M198 192C212 119 275 65 352 65C429 65 492 119 506 192" stroke="#123E61" stroke-width="22" stroke-linecap="round"/>
    <path d="M226 194C239 137 290 95 351 95C412 95 463 137 476 194" stroke="#C4A154" stroke-width="12" stroke-linecap="round"/>
    <path d="M352 40L389 201H315L352 40Z" fill="url(#navyDepth)" stroke="#FFFFFF" stroke-width="9" stroke-linejoin="round"/>
    <path d="M216 98L319 203L262 217L216 98Z" fill="url(#tealSail)" stroke="#FFFFFF" stroke-width="7" stroke-linejoin="round"/>
    <path d="M526 96L424 203L481 217L526 96Z" fill="url(#goldSail)" stroke="#FFFFFF" stroke-width="7" stroke-linejoin="round"/>

    <path d="M254 180L365 159L505 179L510 205H271L254 180Z" fill="#FFFFFF" stroke="#123E61" stroke-width="11" stroke-linejoin="round"/>
    <path d="M167 211L284 191V241H167L244 226L167 211Z" fill="#FFFFFF" stroke="#123E61" stroke-width="11" stroke-linejoin="round"/>
    <path d="M281 206H534L604 220V240H281V206Z" fill="#FFFFFF" stroke="#123E61" stroke-width="11" stroke-linejoin="round"/>
    <path d="M285 234H487L556 244V303H279L285 234Z" fill="url(#tealFace)" stroke="#123E61" stroke-width="11" stroke-linejoin="round"/>
    <path d="M336 173L408 181L431 207H344L336 173Z" fill="#FFFFFF" stroke="#123E61" stroke-width="8" stroke-linejoin="round"/>
    <path d="M252 304H604L584 333C570 354 547 366 522 366H262L252 304Z" fill="url(#navyDepth)" stroke="#123E61" stroke-width="10" stroke-linejoin="round"/>
    <path d="M249 292H624" stroke="#BCA05D" stroke-width="12" stroke-linecap="round"/>
    <path d="M492 257H628" stroke="#123E61" stroke-width="9" stroke-linecap="round"/>
    <path d="M520 233V292M559 238V292M597 246V292" stroke="#123E61" stroke-width="7" stroke-linecap="round"/>
    <rect x="307" y="252" width="31" height="29" rx="3" fill="#F9FCFD"/>
    <rect x="354" y="249" width="31" height="32" rx="3" fill="#F9FCFD"/>
    <rect x="426" y="238" width="36" height="53" rx="3" fill="#F9FCFD"/>
    <rect x="480" y="239" width="36" height="52" rx="3" fill="#F9FCFD"/>
    <path d="M137 354C204 323 270 323 335 351C401 379 474 379 622 349" stroke="#123E61" stroke-width="15" stroke-linecap="round"/>
    <path d="M126 379C190 350 253 349 315 374C377 400 457 399 596 373" stroke="#158B96" stroke-width="11" stroke-linecap="round"/>
  </g>

  <text x="380" y="462" text-anchor="middle" fill="#0B2D4D" font-family="Arial, Helvetica, sans-serif" font-size="96" font-weight="900" letter-spacing="0">FLOATBASE</text>
  <text x="380" y="504" text-anchor="middle" fill="#10263C" font-family="Arial, Helvetica, sans-serif" font-size="27" font-weight="500" letter-spacing="0">Smart Management For your life on water</text>
</svg>
